<svg xmlns="http://www.w3.org/2000/svg" viewBox="0 0 390.271 390.271" style="enable-background:new 0 0 390.271 390.271" xml:space="preserve"><path style="fill:#194f82" d="M390.206 131.168C390.206 58.57 331.119 0 259.038 0 186.44 0 127.354 59.087 127.354 131.168 56.889 132.267 0 190.255 0 260.719c0 71.564 57.988 129.552 129.552 129.552 70.465 0 128.453-56.889 129.552-127.354 72.015-.064 131.102-59.151 131.102-131.749zM129.552 368.549c-59.604 0-107.83-48.226-107.83-107.83s48.226-107.83 107.83-107.83c2.715 17.325 9.244 33.616 18.424 48.226-3.232-.517-6.529-1.099-9.762-1.099-24.372 0-39.046 14.093-37.947 39.046v16.808H87.273v20.622h12.994v22.691H87.79v21.657h84.04v-21.657h-45.511v-22.756h25.471v-20.622h-25.471v-17.907c.517-8.663 3.232-15.192 12.477-15.709 6.529 0 11.895 4.331 15.709 12.994l12.994-10.279c18.941 18.424 43.378 31.418 70.465 35.749-.582 59.67-48.808 107.896-108.412 107.896zm129.486-127.935c-60.186 0-109.446-49.325-109.446-109.446S198.917 21.721 259.038 21.721s109.511 49.261 109.511 109.446c-.581 60.704-49.325 109.447-109.511 109.447z"/><path style="fill:#56ace0" d="M237.899 260.655c0 59.604-48.226 107.83-107.83 107.83-60.186 0-108.412-48.226-108.412-107.83s48.226-107.83 107.83-107.83c2.715 17.325 9.244 33.616 18.424 48.226-3.232-.517-6.529-1.099-9.762-1.099-24.372 0-39.046 14.093-37.947 39.046v16.808H87.208v20.558h12.994v22.82H87.79v21.657h84.04v-21.657h-45.511v-22.756h25.471V255.87h-25.471v-17.907c.517-8.663 3.232-15.192 12.477-15.709 6.529 0 11.895 4.331 15.709 12.994l12.994-10.279c18.941 18.36 43.313 31.354 70.4 35.686z"/><path style="fill:#ffc10d" d="M367.968 131.168c0-60.186-49.325-109.446-109.446-109.446S149.01 70.982 149.01 131.168s49.325 109.446 109.511 109.446c60.703 0 109.447-48.743 109.447-109.446z"/><path style="fill:#194f82" d="M259.038 0C186.44 0 127.354 59.087 127.354 131.168 56.889 132.267 0 190.255 0 260.719c0 71.564 57.988 129.552 129.552 129.552 70.465 0 128.453-56.889 129.552-127.354 72.598 0 131.168-59.087 131.168-131.168C390.206 59.087 331.119 0 259.038 0zM21.657 260.655c0-59.604 48.226-107.83 107.83-107.83 2.715 17.325 9.244 33.616 18.424 48.226-3.232-.517-6.529-1.099-9.762-1.099-24.372 0-39.046 14.093-37.947 39.046v16.808H87.208v20.622h12.994v22.756H87.79v21.657h84.04v-21.657h-45.511v-22.756h25.471v-20.622h-25.471v-17.907c.517-8.663 3.232-15.192 12.477-15.709 6.529 0 11.895 4.331 15.709 12.994l12.994-10.279c18.941 18.424 43.378 31.418 70.465 35.749 0 59.604-48.226 107.83-107.83 107.83-60.251.065-108.477-48.161-108.477-107.829zm127.935-129.487c0-60.186 49.325-109.446 109.446-109.446s109.511 49.261 109.511 109.446-49.325 109.446-109.511 109.446c-60.703 0-109.446-48.743-109.446-109.446z"/><path style="fill:#194f82" d="M271.515 117.075V93.22c5.947 1.616 12.477 4.848 19.523 9.762l13.576-19.523c-10.861-7.564-21.657-11.895-32.517-13.576v-8.145h-17.325v8.145c-19.523 2.715-31.418 12.994-33.616 34.133-.517 18.941 12.477 27.669 33.616 33.616v24.372c-7.046-2.198-14.61-7.046-23.273-14.093l-15.192 18.424c11.895 10.279 24.372 16.808 38.465 18.941v11.895h17.261v-11.378c21.139-2.715 34.715-15.192 34.715-34.133-.001-22.108-16.809-29.155-35.233-34.585zm-17.907-5.431c-4.848-2.198-7.046-5.43-7.046-10.279 0-4.848 2.198-7.564 7.046-9.244v19.523zm17.907 50.942v-20.04c4.848 1.616 8.145 4.331 8.145 10.279.001 4.912-2.715 8.145-8.145 9.761zM40.663 118.691c5.947 0 10.861-4.848 10.861-10.861V51.459h56.889c5.947 0 10.861-4.848 10.861-10.861s-4.848-10.861-10.861-10.861h-67.75c-5.947 0-10.861 4.848-10.861 10.861v67.749c0 5.431 4.849 10.344 10.861 10.344zM349.543 271.515c-5.947 0-10.861 4.848-10.861 10.861v56.372h-56.307c-5.947 0-10.861 4.848-10.861 10.861 0 5.947 4.848 10.861 10.861 10.861h67.232c5.947 0 10.861-4.848 10.861-10.861v-67.232c-.064-5.949-4.912-10.862-10.925-10.862z"/></svg>
